<?xml version="1.0" encoding="utf-8"?>
<!-- Generator: Adobe Illustrator 22.0.1, SVG Export Plug-In . SVG Version: 6.00 Build 0)  -->
<svg version="1.1" id="Layer_1" xmlns="http://www.w3.org/2000/svg" xmlns:xlink="http://www.w3.org/1999/xlink" x="0px" y="0px"
	 viewBox="0 0 610.6 608.4" style="enable-background:new 0 0 610.6 608.4;" xml:space="preserve">
<style type="text/css">
	.st0{fill:#F3F8B0;}
	.st1{fill:#00E83F;}
</style>
<g>
	<circle class="st0" cx="305.9" cy="304.8" r="300"/>
</g>
<g>
	<path class="st1" d="M307.2,252.8c40-153,0-200,0-200h-2.2c0,0-40,47,0,200H307.2z"/>
</g>
<g>
	<path class="st1" d="M256.9,287.6c-133.2-85.3-190.2-61.8-190.2-61.8l-0.7,2.1c0,0,32.3,52.6,190.2,61.8L256.9,287.6z"/>
</g>
<g>
	<path class="st1" d="M274.4,346.2C152.1,446.5,156.8,508,156.8,508l1.8,1.3c0,0,60-14.5,117.6-161.8L274.4,346.2z"/>
</g>
<g>
	<path class="st1" d="M335.5,347.6c57.6,147.3,117.6,161.8,117.6,161.8l1.8-1.3c0,0,4.7-61.5-117.6-161.8L335.5,347.6z"/>
</g>
<g>
	<path class="st1" d="M355.8,289.9c157.9-9.2,190.2-61.8,190.2-61.8l-0.7-2.1c0,0-57.1-23.5-190.2,61.8L355.8,289.9z"/>
</g>
</svg>
