<?xml version="1.0" encoding="utf-8"?>
<!-- Generator: Adobe Illustrator 22.0.1, SVG Export Plug-In . SVG Version: 6.00 Build 0)  -->
<svg version="1.1" id="Layer_1" xmlns="http://www.w3.org/2000/svg" xmlns:xlink="http://www.w3.org/1999/xlink" x="0px" y="0px"
	 viewBox="0 0 700 1000" style="enable-background:new 0 0 700 1000;" xml:space="preserve">
<style type="text/css">
	.st0{fill:#F3F8B0;}
	.st1{fill:#00E83F;}
</style>
<g>
	<circle class="st0" cx="348" cy="500" r="300"/>
</g>
<g>
	<path class="st1" d="M349.2,448c40-153,0-200,0-200H347c0,0-40,47,0,200H349.2z"/>
</g>
<g>
	<path class="st1" d="M298.9,482.8C165.8,397.4,108.7,421,108.7,421l-0.7,2.1c0,0,32.3,52.6,190.2,61.8L298.9,482.8z"/>
</g>
<g>
	<path class="st1" d="M316.4,541.4C194.2,641.6,198.9,703.2,198.9,703.2l1.8,1.3c0,0,60-14.5,117.6-161.8L316.4,541.4z"/>
</g>
<g>
	<path class="st1" d="M377.6,542.8c57.6,147.3,117.6,161.8,117.6,161.8l1.8-1.3c0,0,4.7-61.5-117.6-161.8L377.6,542.8z"/>
</g>
<g>
	<path class="st1" d="M397.8,485.1c157.9-9.2,190.2-61.8,190.2-61.8l-0.7-2.1c0,0-57.1-23.5-190.2,61.8L397.8,485.1z"/>
</g>
</svg>
